<?xml version="1.0" encoding="UTF-8"?>
<svg id="Camada_1" xmlns="http://www.w3.org/2000/svg" viewBox="0 0 3939.35 208.87">
  <defs>
    <style>
      .cls-1 {
        fill: none;
        stroke: #1c1717;
        stroke-miterlimit: 10;
        stroke-width: 1.5px;
      }
    </style>
  </defs>
  <path class="cls-1" d="M0,135.21c231.96,0,456.47-38.34,687.26-29.43,331.83,12.81,663.84,20.37,995.89,24.81,141.58,1.89,280.57-17.36,420.09-12.41,172.6,6.13,345.3,5.21,517.78-4.12,60.96-3.3,122.51-7.56,182.72,2.53,323.54,54.21,673.44,18.62,1006.84,18.62h128.78"/>
  <g>
    <path d="M1384.51,51.27c.87,2.09,2.07,4.11,3.08,5.99,3.43,6.35,5.27,13.46,5.95,20.61,1.35,14.19-1.54,28.97-7.38,41.93-6.09,13.52-15,25.12-23.55,37.11-4.57,6.41-9.84,13.21-11.85,20.97-1.76,6.83,1.1,23.37-3.86,27.85-5.16,4.67-16.15,4.81-14.56-4.36.89-5.12,2.63-9.98,2.99-15.21.52-7.74-1.21-15.84-4.38-22.88-12.07-26.75-12.92-58.22-3.01-85.84,3.43-9.55,10.4-18.14,12.33-28.2,1.96-10.19-1.22-19.48,4.66-28.92,4.64-7.45,12.66-11.66,21.27-12.54,3.48-.36,7,.06,10.45.64,3.15.52,6.33,1.19,9.21,2.58,3.52,1.69,6.89,3.68,10.29,5.6,3.32,1.86,5.98,2.86,9.79,3.4,4.82.68,9.65,1.37,14.47,2.05,1.15.16,2.35.34,3.32,1,.45.3.86.74.95,1.28.24,1.35-1.4,2.17-2.72,2.53l-.82.22c-7.3,1.96-14.59,3.93-21.89,5.89-5.22,1.41-12.18,3.79-14.92,8.9-1.68,3.14-1.1,6.35.17,9.41Z"/>
    <path d="M1256.06,19.41l.82-.22c1.32-.36,2.96-1.18,2.72-2.53-.1-.54-.5-.97-.95-1.28-.97-.65-2.17-.83-3.32-1-4.82-.68-9.65-1.37-14.47-2.05-3.81-.54-6.48-1.54-9.79-3.4-3.4-1.91-6.77-3.9-10.29-5.6-2.88-1.39-6.05-2.05-9.21-2.58-3.45-.57-6.97-.99-10.45-.64-15.15,1.55-24.74,12.09-25.67,27.05-.45,7.29-1.73,9.96-7.46,15.03-12.41,10.97-22.31,25.43-25.23,41.73-3.34,18.69,2.67,37.78,10.46,55.09,2.76,6.13,4.18,11.03,3.95,17.77-.23,6.78-1.25,13.54-3.05,20.08-.56,2.02-1.19,4.13-.71,6.17,1.05,4.46,11.77,7.11,15.02,4.05,1.77-1.66,1.47-5.9,1.42-8.09-.24-11.07.04-18.91,8.39-27.24,4.81-4.8,10.53-8.61,15.35-13.41,4.79-4.77,8.6-10.42,12.38-16.04,4.21-6.26,8.45-12.57,11.3-19.55,4.47-10.95,5.25-22.95,4.45-34.64-.66-9.67-6.03-23.6-2.18-32.87,2.6-6.26,8.62-8.35,14.63-9.97,7.3-1.96,14.59-3.93,21.89-5.89Z"/>
    <path d="M1221.94,62.67c1.53-3.64,3.3-7.24,5.26-10.79,4.32-7.82,10.76-14.79,19.09-18.01,13.56-5.24,29.65.83,39.24,11.76,1.6,1.83,3.08,3.79,5,5.29,2.98,2.32,6.76,3.31,10.32,4.58,5.13,1.84,10,4.39,14.42,7.55.52.37,1.07.81,1.18,1.44.25,1.4-1.67,2.05-3.09,2.09-7.63.25-15.27-.21-22.81-1.37-4.81-.74-10.64-1.41-13.69,2.39-5.75,7.17,2.72,14.61,7.05,19.33,5.96,6.48,11.18,13.65,15.55,21.3,8.56,15.02,13.84,31.95,14.88,49.23,0,4.99-.83,10.76.79,15.48,1.57,4.56,5.35,7.51,8.05,11.32,2.05,2.89,5.51,6.82,5.27,10.67-.27,4.26-8.01,8.93-11.83,7.14-2.98-1.4-3.57-5.2-4.81-7.92-1.64-3.62-3.29-7.28-5.63-10.52-5.29-7.3-12.36-14.09-21.56-15.71-9.04-1.58-17.92-3.29-26.53-6.92-18.76-7.9-33.33-21.58-38.76-41.78-2.21-8.21-3.24-17.92-3.53-26.38-.35-10.38,2.14-20.64,6.14-30.16Z"/>
  </g>
</svg>