<?xml version="1.0" encoding="UTF-8"?>
<svg id="Camada_1" xmlns="http://www.w3.org/2000/svg" viewBox="0 0 255.48 217.82">
  <path d="M68.6,47.21c.94,2.26,2.24,4.45,3.34,6.49,3.72,6.87,5.7,14.57,6.44,22.31,1.46,15.36-1.67,31.36-7.98,45.39-6.59,14.64-16.24,27.19-25.5,40.17-4.95,6.94-10.66,14.3-12.83,22.7-1.91,7.39,1.19,25.3-4.17,30.15-5.59,5.06-17.48,5.21-15.76-4.71.96-5.54,2.85-10.8,3.23-16.46.57-8.37-1.31-17.14-4.75-24.77-13.07-28.96-13.99-63.02-3.26-92.92,3.71-10.34,11.26-19.64,13.35-30.53,2.12-11.03-1.32-21.09,5.05-31.31C30.79,5.65,39.46,1.1,48.78.14c3.77-.39,7.57.07,11.31.69,3.41.57,6.85,1.29,9.97,2.79,3.81,1.83,7.46,3.99,11.14,6.06,3.59,2.02,6.47,3.09,10.6,3.68,5.22.74,10.44,1.48,15.67,2.22,1.25.18,2.55.37,3.59,1.08.49.33.93.8,1.03,1.38.26,1.46-1.52,2.35-2.95,2.73l-.88.24c-7.9,2.13-15.79,4.25-23.69,6.38-5.65,1.52-13.19,4.1-16.16,9.63-1.82,3.4-1.19,6.87.18,10.18Z"/>
  <path d="M131.82,21.01l-.88-.24c-1.43-.38-3.21-1.28-2.95-2.73.1-.58.54-1.05,1.03-1.38,1.05-.7,2.35-.9,3.59-1.08,5.22-.74,10.44-1.48,15.67-2.22,4.12-.59,7.01-1.66,10.6-3.68,3.69-2.07,7.33-4.22,11.14-6.06,3.12-1.5,6.55-2.22,9.97-2.79,3.74-.62,7.54-1.07,11.31-.69,16.4,1.68,26.78,13.09,27.78,29.28.49,7.89,1.88,10.79,8.07,16.27,13.43,11.88,24.15,27.52,27.31,45.18,3.62,20.23-2.89,40.9-11.32,59.64-2.99,6.63-4.52,11.94-4.28,19.23.24,7.34,1.35,14.66,3.3,21.74.6,2.18,1.29,4.47.77,6.68-1.14,4.83-12.74,7.7-16.26,4.39-1.92-1.8-1.59-6.39-1.53-8.75.26-11.99-.05-20.47-9.09-29.48-5.21-5.2-11.4-9.32-16.61-14.52-5.19-5.17-9.31-11.28-13.4-17.36-4.56-6.77-9.15-13.61-12.24-21.17-4.84-11.86-5.68-24.84-4.81-37.5.72-10.47,6.53-25.55,2.36-35.58-2.81-6.78-9.33-9.04-15.84-10.79-7.9-2.13-15.79-4.25-23.69-6.38Z"/>
  <path d="M78.57,58.48c1.66-3.94,3.57-7.84,5.7-11.68,4.68-8.46,11.65-16.01,20.66-19.5,14.68-5.67,32.09.9,42.47,12.73,1.73,1.98,3.34,4.11,5.41,5.72,3.23,2.52,7.32,3.58,11.17,4.96,5.55,1.99,10.82,4.75,15.61,8.18.56.4,1.16.88,1.28,1.55.27,1.52-1.81,2.22-3.35,2.27-8.25.27-16.53-.23-24.7-1.48-5.21-.8-11.52-1.53-14.82,2.59-6.22,7.76,2.94,15.82,7.64,20.92,6.46,7.02,12.11,14.77,16.83,23.05,9.27,16.25,14.98,34.58,16.1,53.29,0,5.4-.9,11.65.85,16.76,1.7,4.93,5.79,8.13,8.72,12.25,2.22,3.13,5.96,7.39,5.7,11.55-.29,4.61-8.67,9.67-12.81,7.72-3.22-1.52-3.86-5.62-5.2-8.57-1.78-3.92-3.56-7.88-6.09-11.38-5.73-7.91-13.38-15.26-23.34-17-9.79-1.71-19.4-3.56-28.72-7.49-20.31-8.55-36.08-23.36-41.96-45.23-2.39-8.89-3.5-19.4-3.82-28.56-.38-11.23,2.32-22.34,6.65-32.65Z"/>
</svg>