<?xml version="1.0" encoding="UTF-8"?>
<svg id="Camada_1" xmlns="http://www.w3.org/2000/svg" viewBox="0 0 979.72 165.44">
  <g>
    <path fill="white" d="M391.95,46.76c0-14.67-13.49-22.15-28.75-22.15h-49.86l-1.91,9.24,15.55.73-17.75,82.57-15.69.88-1.91,9.24h58.08c21.12,0,37.11-12.03,37.11-30.95,0-10.71-7.19-18.92-20.39-21.71l.15-.88c16.43-.88,25.37-13.64,25.37-26.99ZM374.94,96.62c0,12.91-9.83,20.53-24.79,20.53h-29.48l8.21-38.57h23.02c15.4,0,23.03,8.65,23.03,18.04ZM356.32,69.19h-25.37l7.33-34.46h22.15c13.35,0,19.06,6.89,19.06,14.81,0,13.2-9.39,19.65-23.17,19.65Z"/>
    <path fill="white" d="M580.46,68.75c0-11.44-4.99-19.51-15.25-19.51-8.65,0-15.11,5.13-18.19,17.31h-1.17c-.44-9.68-4.84-17.31-14.81-17.31-10.56,0-16.43,7.77-18.33,17.31h-1.17v-16.13l-21.56,3.08v7.77h11v56.46l-11,.88v8.65h42.68v-8.65l-21.12-.88v-35.2c0-13.64,5.28-23.17,14.23-23.17,5.87,0,9.97,3.96,9.97,16.28v26.55h9.97v-20.39c0-13.35,7.04-22.44,14.81-22.44,6.31,0,9.39,4.11,9.39,13.79v44.58l-21.27.88v8.65h42.83v-8.65l-11-.88v-48.99Z"/>
    <path fill="white" d="M626.17,60.6h53.38l2.2-9.68h-55.88c7.92-8.21,12.32-16.43,15.84-25.23l-9.96-3.8c-8.07,18.92-16.43,27.57-38.13,33.73l2.77,8.64c7.04-1.61,13.49-3.96,19.65-7.19l-8.21,38.13c-4.11,19.07.15,33.29,18.04,33.29,16.87,0,37.4-11.29,54.12-30.65l-5.43-7.48c-15.84,18.19-34.02,28.31-45.61,28.31-9.24,0-13.79-5.72-10.12-23.17l7.33-34.91Z"/>
    <path fill="white" d="M789.81,106.91c-5.63,0-10.22,4.49-10.22,10.43,0,4.59,3.13,7.72,7.93,7.72,5.74,0,10.53-4.38,10.53-10.22,0-4.69-3.34-7.93-8.24-7.93Z"/>
    <path fill="white" d="M944.24,41.77c5.74,0,10.53-4.38,10.53-10.22,0-4.69-3.34-7.93-8.24-7.93-5.63,0-10.22,4.48-10.22,10.43,0,4.59,3.13,7.72,7.93,7.72Z"/>
    <path fill="white" d="M848.44,119.13c-5.88,0-9.47-5.02-11.05-12.63,58.12-57.11,47.21-85.53,29.27-85.53-27.27,0-43.9,50.68-38.73,82.39-5.6,5.45-13.37,13.02-20.4,19.05l5.75,5.9c5.88-4.88,11.19-9.76,16.21-14.35,3.01,9.18,8.61,15.21,17.22,15.21,10.76,0,26.12-10.91,41.18-28.13l-5.17-7.32c-14.21,16.07-26.4,25.4-34.3,25.4ZM864.8,31.03c10.62,0,13.7,21.21-28.34,65.41-1.01-26.12,11.84-65.41,28.34-65.41Z"/>
    <path fill="white" d="M974.7,93.74c-15.64,16.93-26.4,25.4-33.15,25.4-5.6,0-5.74-5.31-4.02-11.77l8.18-31.57c3.87-15.21.14-24.11-10.91-24.11-11.91,0-25.97,10.76-41.9,28.56l5.02,6.89c15.78-16.93,26.55-25.4,33.15-25.4,5.74,0,5.74,5.31,4.16,11.77l-8.75,33.58c-3.73,13.78,1.43,22.1,11.77,22.1,11.48,0,25.83-10.91,41.47-28.84l-5.02-6.6Z"/>
    <path fill="white" d="M479.91,69.93c0-12.91-11.59-20.39-28.89-20.39-30.07,0-51.77,22.59-51.77,48.1,0,17.6,10.26,31.53,34.46,31.53,12.17,0,28.16-3.52,42.82-13.2l-3.52-8.51c-10.71,7.19-25.23,12.03-37.1,12.03-9.83,0-20.91-5.63-23.47-15.13,14.94,1.05,67.47-6.43,67.47-34.44ZM410.35,94.79c1.04-13.11,15.73-35.59,39.78-35.56,10.12,0,19.04,3.7,18.33,11.59-2.01,22.45-58.12,23.98-58.12,23.98Z"/>
    <path fill="white" d="M771.67,69.93c0-12.91-11.59-20.39-28.89-20.39-30.07,0-51.77,22.59-51.77,48.1,0,17.6,10.26,31.53,34.46,31.53,12.17,0,28.16-3.52,42.82-13.2l-3.52-8.51c-10.71,7.19-25.23,12.03-37.1,12.03-9.83,0-20.91-5.63-23.47-15.13,14.94,1.05,67.47-6.43,67.47-34.44ZM702.11,94.79c1.04-13.11,15.73-35.59,39.78-35.56,10.12,0,19.04,3.7,18.33,11.59-2.01,22.45-58.12,23.98-58.12,23.98Z"/>
  </g>
  <g>
    <path fill="white" d="M52.1,35.86c.72,1.72,1.7,3.38,2.54,4.93,2.82,5.22,4.33,11.06,4.89,16.95,1.11,11.67-1.27,23.82-6.06,34.47-5.01,11.12-12.33,20.65-19.37,30.51-3.76,5.27-8.09,10.86-9.74,17.24-1.45,5.62.9,19.22-3.17,22.9-4.24,3.84-13.28,3.96-11.97-3.58.73-4.21,2.17-8.2,2.46-12.5.43-6.36-.99-13.02-3.61-18.81C-1.86,105.97-2.56,80.1,5.59,57.39c2.82-7.85,8.55-14.92,10.14-23.19,1.61-8.38-1-16.02,3.83-23.78C23.38,4.29,29.97.83,37.05.11c2.86-.29,5.75.05,8.59.52,2.59.43,5.2.98,7.57,2.12,2.89,1.39,5.66,3.03,8.46,4.6,2.73,1.53,4.92,2.35,8.05,2.79,3.97.56,7.93,1.13,11.9,1.69.95.13,1.94.28,2.73.82.37.25.71.61.78,1.05.2,1.11-1.15,1.78-2.24,2.08l-.67.18c-6,1.62-12,3.23-17.99,4.85-4.29,1.16-10.02,3.11-12.27,7.32-1.38,2.58-.91,5.22.14,7.73Z"/>
    <path fill="white" d="M100.12,15.96l-.67-.18c-1.09-.29-2.44-.97-2.24-2.08.08-.44.41-.8.78-1.05.8-.54,1.78-.68,2.73-.82,3.97-.56,7.93-1.13,11.9-1.69,3.13-.44,5.32-1.26,8.05-2.79s5.57-3.21,8.46-4.6c2.37-1.14,4.98-1.69,7.57-2.12,2.84-.47,5.73-.82,8.59-.52,12.46,1.28,20.34,9.94,21.1,22.24.37,5.99,1.43,8.19,6.13,12.35,10.2,9.02,18.34,20.91,20.74,34.31,2.75,15.36-2.19,31.06-8.6,45.29-2.27,5.04-3.43,9.07-3.25,14.61.19,5.58,1.03,11.13,2.51,16.51.46,1.66.98,3.4.58,5.07-.87,3.67-9.67,5.85-12.35,3.33-1.46-1.37-1.2-4.85-1.17-6.65.2-9.1-.04-15.55-6.9-22.39-3.96-3.95-8.66-7.08-12.62-11.02-3.94-3.92-7.07-8.57-10.18-13.18-3.46-5.15-6.95-10.34-9.29-16.08-3.68-9-4.31-18.87-3.65-28.48.55-7.95,4.96-19.41,1.79-27.02-2.14-5.15-7.09-6.87-12.03-8.2-6-1.62-12-3.23-17.99-4.85Z"/>
    <path fill="white" d="M59.68,44.42c1.26-2.99,2.71-5.95,4.33-8.87,3.55-6.43,8.85-12.16,15.69-14.81,11.15-4.31,24.37.68,32.26,9.67,1.32,1.5,2.53,3.12,4.11,4.35,2.45,1.91,5.56,2.72,8.48,3.77,4.21,1.51,8.22,3.61,11.86,6.21.43.3.88.67.97,1.18.2,1.15-1.38,1.68-2.54,1.72-6.27.21-12.56-.17-18.76-1.13-3.96-.61-8.75-1.16-11.25,1.96-4.73,5.9,2.24,12.01,5.8,15.89,4.9,5.33,9.2,11.22,12.78,17.51,7.04,12.35,11.38,26.27,12.23,40.47,0,4.1-.68,8.85.65,12.73,1.29,3.75,4.4,6.17,6.62,9.3,1.69,2.38,4.53,5.61,4.33,8.78-.22,3.5-6.59,7.34-9.73,5.87-2.45-1.15-2.93-4.27-3.95-6.51-1.35-2.98-2.7-5.98-4.63-8.65-4.35-6.01-10.16-11.59-17.73-12.91-7.43-1.3-14.73-2.7-21.81-5.69-15.42-6.5-27.4-17.74-31.87-34.35-1.81-6.75-2.66-14.73-2.9-21.69-.29-8.53,1.76-16.97,5.05-24.8Z"/>
  </g>
</svg> 