<?xml version="1.0" encoding="UTF-8"?>
<svg id="Camada_1" xmlns="http://www.w3.org/2000/svg" viewBox="0 0 588.61 314.55">
  <g>
    <path d="M85.81,244.04c0-12.55-11.54-18.94-24.59-18.94H18.57l-1.63,7.9,13.3.63-15.18,70.63-13.42.75-1.63,7.9h49.68c18.07,0,31.74-10.29,31.74-26.47,0-9.16-6.15-16.18-17.44-18.57l.13-.75c14.05-.75,21.7-11.67,21.7-23.08ZM71.26,286.69c0,11.04-8.41,17.56-21.2,17.56h-25.22l7.03-33h19.7c13.17,0,19.7,7.4,19.7,15.43ZM55.33,263.23h-21.7l6.27-29.48h18.95c11.42,0,16.31,5.9,16.31,12.67,0,11.29-8.03,16.81-19.82,16.81Z"/>
    <path d="M247.07,262.86c0-9.79-4.27-16.69-13.05-16.69-7.4,0-12.92,4.39-15.56,14.8h-1c-.38-8.28-4.14-14.8-12.67-14.8-9.03,0-14.05,6.65-15.68,14.8h-1v-13.8l-18.44,2.64v6.65h9.41v48.3l-9.41.75v7.4h36.51v-7.4l-18.07-.75v-30.11c0-11.67,4.52-19.82,12.17-19.82,5.02,0,8.53,3.39,8.53,13.93v22.71h8.53v-17.44c0-11.42,6.02-19.2,12.67-19.2,5.39,0,8.03,3.51,8.03,11.79v38.14l-18.19.75v7.4h36.64v-7.4l-9.41-.75v-41.9Z"/>
    <path d="M286.17,255.88h45.67l1.88-8.28h-47.8c6.77-7.03,10.54-14.05,13.55-21.58l-8.52-3.25c-6.9,16.18-14.05,23.59-32.62,28.86l2.37,7.39c6.02-1.38,11.54-3.39,16.81-6.15l-7.03,32.62c-3.51,16.31.13,28.48,15.43,28.48,14.43,0,31.99-9.66,46.29-26.22l-4.64-6.4c-13.55,15.56-29.11,24.21-39.02,24.21-7.9,0-11.79-4.89-8.66-19.82l6.27-29.86Z"/>
    <path d="M426.15,295.49c-4.82,0-8.74,3.84-8.74,8.92,0,3.93,2.68,6.6,6.78,6.6,4.91,0,9.01-3.75,9.01-8.74,0-4.02-2.85-6.78-7.05-6.78Z"/>
    <path d="M558.26,239.78c4.91,0,9.01-3.75,9.01-8.74,0-4.02-2.85-6.78-7.05-6.78-4.82,0-8.74,3.84-8.74,8.92,0,3.93,2.68,6.6,6.78,6.6Z"/>
    <path d="M476.31,305.95c-5.03,0-8.1-4.3-9.45-10.8,49.72-48.86,40.39-73.16,25.04-73.16-23.32,0-37.55,43.35-33.13,70.48-4.79,4.66-11.44,11.14-17.45,16.29l4.92,5.04c5.03-4.17,9.57-8.35,13.87-12.27,2.58,7.86,7.37,13.01,14.73,13.01,9.21,0,22.34-9.33,35.23-24.06l-4.42-6.26c-12.15,13.75-22.59,21.73-29.34,21.73ZM490.3,230.58c9.08,0,11.72,18.14-24.25,55.95-.86-22.34,10.13-55.95,24.25-55.95Z"/>
    <path d="M584.32,284.23c-13.38,14.49-22.59,21.73-28.36,21.73-4.79,0-4.91-4.54-3.44-10.07l7-27.01c3.31-13.01.12-20.62-9.33-20.62-10.19,0-22.22,9.21-35.84,24.43l4.3,5.89c13.5-14.49,22.71-21.73,28.36-21.73,4.91,0,4.91,4.54,3.56,10.07l-7.49,28.72c-3.19,11.78,1.23,18.9,10.07,18.9,9.82,0,22.1-9.33,35.48-24.67l-4.3-5.65Z"/>
    <path d="M161.05,263.86c0-11.04-9.91-17.44-24.72-17.44-25.72,0-44.29,19.32-44.29,41.15,0,15.06,8.78,26.97,29.48,26.97,10.41,0,24.09-3.01,36.63-11.29l-3.01-7.28c-9.16,6.15-21.58,10.29-31.74,10.29-8.41,0-17.89-4.81-20.08-12.94,12.78.9,57.72-5.5,57.72-29.46ZM101.55,285.12c.89-11.21,13.46-30.44,34.03-30.42,8.66,0,16.29,3.16,15.68,9.91-1.72,19.2-49.71,20.51-49.71,20.51Z"/>
    <path d="M410.63,263.86c0-11.04-9.91-17.44-24.72-17.44-25.72,0-44.29,19.32-44.29,41.15,0,15.06,8.78,26.97,29.48,26.97,10.41,0,24.09-3.01,36.63-11.29l-3.01-7.28c-9.16,6.15-21.58,10.29-31.74,10.29-8.41,0-17.89-4.81-20.08-12.94,12.78.9,57.72-5.5,57.72-29.46ZM351.13,285.12c.89-11.21,13.46-30.44,34.03-30.42,8.66,0,16.29,3.16,15.68,9.91-1.72,19.2-49.71,20.51-49.71,20.51Z"/>
  </g>
  <g>
    <path d="M244.85,39.48c.79,1.89,1.87,3.72,2.79,5.42,3.11,5.74,4.77,12.18,5.38,18.66,1.22,12.85-1.39,26.22-6.68,37.95-5.51,12.24-13.58,22.74-21.32,33.59-4.14,5.81-8.91,11.95-10.73,18.99-1.6,6.18.99,21.16-3.49,25.21-4.67,4.23-14.62,4.36-13.18-3.94.81-4.63,2.38-9.03,2.71-13.77.47-7-1.09-14.34-3.97-20.71-10.93-24.21-11.7-52.7-2.72-77.7,3.1-8.65,9.42-16.42,11.16-25.53,1.77-9.23-1.11-17.64,4.22-26.18,4.2-6.75,11.46-10.56,19.25-11.35,3.15-.32,6.33.06,9.46.58,2.86.47,5.73,1.08,8.33,2.33,3.19,1.53,6.24,3.34,9.32,5.07,3,1.69,5.41,2.59,8.86,3.08,4.37.62,8.73,1.24,13.1,1.86,1.05.15,2.13.31,3.01.9.41.28.78.67.86,1.16.22,1.22-1.27,1.96-2.47,2.29l-.74.2c-6.6,1.78-13.21,3.56-19.81,5.33-4.73,1.27-11.03,3.43-13.51,8.06-1.52,2.84-1,5.75.15,8.52Z"/>
    <path d="M297.72,17.57l-.74-.2c-1.2-.32-2.68-1.07-2.47-2.29.09-.49.45-.88.86-1.16.88-.59,1.96-.75,3.01-.9,4.37-.62,8.73-1.24,13.1-1.86,3.45-.49,5.86-1.39,8.86-3.08,3.08-1.73,6.13-3.53,9.32-5.07,2.61-1.26,5.48-1.86,8.33-2.33,3.13-.52,6.31-.9,9.46-.58,13.71,1.41,22.39,10.94,23.23,24.48.41,6.59,1.57,9.02,6.75,13.6,11.23,9.93,20.2,23.02,22.84,37.78,3.03,16.91-2.41,34.2-9.47,49.87-2.5,5.55-3.78,9.98-3.58,16.08.2,6.14,1.13,12.26,2.76,18.18.5,1.83,1.08,3.74.64,5.58-.95,4.04-10.65,6.44-13.6,3.67-1.6-1.5-1.33-5.34-1.28-7.32.22-10.02-.04-17.12-7.6-24.65-4.36-4.34-9.53-7.8-13.89-12.14-4.34-4.32-7.79-9.44-11.2-14.52-3.81-5.66-7.65-11.38-10.23-17.7-4.05-9.91-4.75-20.77-4.02-31.36.6-8.75,5.46-21.36,1.98-29.75-2.35-5.67-7.8-7.56-13.24-9.02-6.6-1.78-13.21-3.56-19.81-5.33Z"/>
    <path d="M253.19,48.9c1.38-3.3,2.99-6.55,4.76-9.77,3.91-7.07,9.74-13.39,17.28-16.31,12.28-4.74,26.83.75,35.52,10.64,1.45,1.65,2.79,3.43,4.52,4.79,2.7,2.1,6.12,2.99,9.34,4.15,4.64,1.66,9.05,3.97,13.06,6.84.47.33.97.73,1.07,1.3.22,1.27-1.51,1.85-2.8,1.89-6.9.23-13.83-.19-20.65-1.24-4.36-.67-9.63-1.28-12.39,2.16-5.2,6.49,2.46,13.23,6.39,17.49,5.4,5.87,10.12,12.35,14.07,19.28,7.75,13.59,12.52,28.92,13.47,44.56,0,4.51-.75,9.74.71,14.01,1.42,4.12,4.84,6.8,7.29,10.24,1.86,2.62,4.98,6.18,4.77,9.66-.24,3.86-7.25,8.08-10.71,6.46-2.7-1.27-3.23-4.7-4.35-7.17-1.49-3.28-2.98-6.59-5.1-9.52-4.79-6.61-11.18-12.76-19.52-14.22-8.18-1.43-16.22-2.98-24.01-6.26-16.98-7.15-30.17-19.53-35.09-37.82-2-7.43-2.93-16.22-3.19-23.88-.32-9.39,1.94-18.68,5.56-27.3Z"/>
  </g>
</svg>