<?xml version="1.0" encoding="UTF-8"?>
<svg id="Camada_1" xmlns="http://www.w3.org/2000/svg" viewBox="0 0 340.29 162.24">
  <g>
    <path d="M16.97,135.85c-2.67,1.73-5.3,3.51-7.86,5.35-3.28,2.35-11.01,8.37-8.68,13.39,1.9,4.1,12.49,3.26,16.01,2.61-2.15.4-1.63,4.09.44,4.81s4.27-.44,6.15-1.55c25.48-15.02,50.99-31.67,79.97-39.1,13.17-3.38,29.43.9,43.21,1.19,15.72.33,31.56-.63,46.87-4.41,19.23-4.75,45.42-14.95,58.79-30.36,5.62-6.48,6.08-14.07,13.82-19.52,8.18-5.75,18.51-7.7,28.29-8.52,8-.67,16.04-.63,24.06-1.04,3.83-.2,7.67-.45,11.47-.99,11.9-1.69-1.16-6.09-5.62-7.34-5.95-1.68-11.89-3.35-17.84-5.03-1.69-.48-3.41-.97-4.86-1.96-4.63-3.19-9.18-11.26-11.33-16.31-4.58-10.72-12.71-20.05-23.62-24.58-8.55-2.14-15.48-3.44-24.34-1.61-3.04.63-10.08,2.94-10.66,6.65-1.12,7.28,11.83,12.51,16.49,15.22,6.93,4.03,13.97,7.86,21.11,11.49,1.29.65,8.94,3.43,8.69,5.29-.38,2.82-6.15,1.48-7.69,1.23-13.61-2.24-24.59-12.17-36.31-18.65-7.02-3.88-15.67-3.85-23.4-1.69-7.81,2.19-14.34,7.19-21.89,9.63-7.08,2.29-13.56,4.8-19.91,8.95-27.54,17.97-55.69,35.04-82.54,54.06-6.25,4.43-13.01,8.72-18.65,13.92-4.97,4.59-10.34,6.95-16.46,10.05-11.36,5.75-22.91,11.85-33.71,18.83Z"/>
    <g>
      <path d="M321.25,157.25l-30.4-27.38c-.32-.29-.51-.69-.53-1.12-.02-.43.13-.85.42-1.17l16.33-18.13c.6-.67,1.63-.72,2.3-.12l30.4,27.38c.32.29.51.69.53,1.12.02.43-.13.85-.42,1.17l-16.33,18.13c-.32.36-.76.54-1.21.54-.39,0-.78-.14-1.09-.42ZM308.39,112.82l-14.16,15.72,27.98,25.21,14.16-15.72-27.98-25.21Z"/>
      <path d="M338.67,139.53c.78,0,1.47-.56,1.6-1.36.15-.89-.45-1.72-1.33-1.87l-22.88-3.86-6.16-22.15-.31-53.5c0-.9-.77-1.6-1.63-1.62-.9,0-1.62.74-1.62,1.63l.31,53.72c0,.14.02.29.06.43l6.5,23.35c.17.61.67,1.06,1.3,1.17l23.9,4.03c.09.02.18.02.27.02Z"/>
    </g>
  </g>
  <path d="M184.4,30.18c-18.3,3.9-37.07,5.46-55.25,9.88-10.07,2.44-20,5.82-29.13,10.78-4.66,2.53-9.11,5.45-13.18,8.86-3.51,2.94-7.95,11.86.76,9.38-.09,2.68-7.62,6.64-10.19,8.82-4.62,3.93-8.97,8.17-13.01,12.7-1.3,1.46-2.61,3.66-1.39,5.19.59.74,1.58.99,2.51,1.16,4.79.84,9.72.3,14.53-.45,16.39-2.55,32.32-7.44,48.09-12.61,28.11-9.21,56.08-19.41,81.73-34.16,7.37-4.24,19.21-14.32,8.72-22.07-9.57-7.07-24.14.39-34.18,2.54Z"/>
</svg>